<svg preserveAspectRatio="none" width="100%" height="100%" overflow="visible" style="display: block;" viewBox="0 0 764 510" fill="none" xmlns="http://www.w3.org/2000/svg">
<g id="Mockup" filter="url(#filter0_dd_164_12458)">
<g clip-path="url(#clip0_164_12458)">
<rect x="48" y="32" width="668" height="414" rx="10" fill="var(--fill-0, #141414)"/>
<rect id="Topbar" x="48" y="32" width="668" height="24" fill="var(--fill-0, #0F0F0F)"/>
<circle id="Ellipse" cx="59" cy="44" r="3" fill="var(--fill-0, #E6594D)" fill-opacity="0.5"/>
<circle id="Ellipse_2" cx="69" cy="44" r="3" fill="var(--fill-0, #F2BF33)" fill-opacity="0.5"/>
<circle id="Ellipse_3" cx="79" cy="44" r="3" fill="var(--fill-0, #33CC66)" fill-opacity="0.5"/>
<rect id="Sidebar" x="48" y="56" width="180" height="390" fill="var(--fill-0, #0F0F0F)"/>
<rect id="Rectangle" x="228" y="56" width="1" height="390" fill="var(--fill-0, white)" fill-opacity="0.05"/>
<rect id="Rectangle_2" x="58" y="68" width="120" height="5" rx="2" fill="var(--fill-0, white)" fill-opacity="0.07"/>
<rect id="Rectangle_3" x="58" y="82" width="120" height="5" rx="2" fill="var(--fill-0, white)" fill-opacity="0.07"/>
<rect id="Rectangle_4" x="58" y="96" width="120" height="5" rx="2" fill="var(--fill-0, #C4A574)" fill-opacity="0.5"/>
<rect id="Rectangle_5" x="58" y="110" width="120" height="5" rx="2" fill="var(--fill-0, white)" fill-opacity="0.07"/>
<rect id="Rectangle_6" x="58" y="124" width="120" height="5" rx="2" fill="var(--fill-0, white)" fill-opacity="0.07"/>
<rect id="Rectangle_7" x="58" y="138" width="120" height="5" rx="2" fill="var(--fill-0, white)" fill-opacity="0.07"/>
<rect id="Rectangle_8" x="58" y="152" width="120" height="5" rx="2" fill="var(--fill-0, white)" fill-opacity="0.07"/>
<rect id="Rectangle_9" x="238" y="62" width="187" height="7" rx="3" fill="var(--fill-0, white)" fill-opacity="0.12"/>
<rect id="Rectangle_10" x="658" y="59" width="48" height="14" rx="3" fill="var(--fill-0, #C4A574)" fill-opacity="0.5"/>
<g id="Rectangle_11">
<rect x="238" y="78" width="150" height="175" rx="5" fill="var(--fill-0, white)" fill-opacity="0.04"/>
<rect x="238.5" y="78.5" width="149" height="174" rx="4.5" stroke="var(--stroke-0, white)" stroke-opacity="0.05"/>
</g>
<rect id="Rectangle_12" x="246" y="86" width="10" height="10" rx="2" fill="var(--fill-0, #C4A574)" fill-opacity="0.3"/>
<g id="Rectangle_13">
<rect x="394" y="78" width="150" height="175" rx="5" fill="var(--fill-0, white)" fill-opacity="0.04"/>
<rect x="394.5" y="78.5" width="149" height="174" rx="4.5" stroke="var(--stroke-0, white)" stroke-opacity="0.05"/>
</g>
<rect id="Rectangle_14" x="402" y="86" width="10" height="10" rx="2" fill="var(--fill-0, #C4A574)" fill-opacity="0.3"/>
<g id="Rectangle_15">
<rect x="550" y="78" width="150" height="175" rx="5" fill="var(--fill-0, white)" fill-opacity="0.04"/>
<rect x="550.5" y="78.5" width="149" height="174" rx="4.5" stroke="var(--stroke-0, white)" stroke-opacity="0.05"/>
</g>
<rect id="Rectangle_16" x="558" y="86" width="10" height="10" rx="2" fill="var(--fill-0, #C4A574)" fill-opacity="0.3"/>
<g id="Rectangle_17">
<rect x="238" y="259" width="150" height="175" rx="5" fill="var(--fill-0, white)" fill-opacity="0.04"/>
<rect x="238.5" y="259.5" width="149" height="174" rx="4.5" stroke="var(--stroke-0, white)" stroke-opacity="0.05"/>
</g>
<rect id="Rectangle_18" x="246" y="267" width="10" height="10" rx="2" fill="var(--fill-0, #C4A574)" fill-opacity="0.3"/>
<g id="Rectangle_19">
<rect x="394" y="259" width="150" height="175" rx="5" fill="var(--fill-0, white)" fill-opacity="0.04"/>
<rect x="394.5" y="259.5" width="149" height="174" rx="4.5" stroke="var(--stroke-0, white)" stroke-opacity="0.05"/>
</g>
<rect id="Rectangle_20" x="402" y="267" width="10" height="10" rx="2" fill="var(--fill-0, #C4A574)" fill-opacity="0.3"/>
<g id="Rectangle_21">
<rect x="550" y="259" width="150" height="175" rx="5" fill="var(--fill-0, white)" fill-opacity="0.04"/>
<rect x="550.5" y="259.5" width="149" height="174" rx="4.5" stroke="var(--stroke-0, white)" stroke-opacity="0.05"/>
</g>
<rect id="Rectangle_22" x="558" y="267" width="10" height="10" rx="2" fill="var(--fill-0, #C4A574)" fill-opacity="0.3"/>
</g>
<rect x="48.5" y="32.5" width="667" height="413" rx="9.5" stroke="var(--stroke-0, white)" stroke-opacity="0.1"/>
</g>
<defs>
<filter id="filter0_dd_164_12458" x="0" y="0" width="764" height="510" filterUnits="userSpaceOnUse" color-interpolation-filters="sRGB">
<feFlood flood-opacity="0" result="BackgroundImageFix"/>
<feColorMatrix in="SourceAlpha" type="matrix" values="0 0 0 0 0 0 0 0 0 0 0 0 0 0 0 0 0 0 127 0" result="hardAlpha"/>
<feOffset dy="16"/>
<feGaussianBlur stdDeviation="24"/>
<feColorMatrix type="matrix" values="0 0 0 0 0 0 0 0 0 0 0 0 0 0 0 0 0 0 0.6 0"/>
<feBlend mode="normal" in2="BackgroundImageFix" result="effect1_dropShadow_164_12458"/>
<feColorMatrix in="SourceAlpha" type="matrix" values="0 0 0 0 0 0 0 0 0 0 0 0 0 0 0 0 0 0 127 0" result="hardAlpha"/>
<feOffset dy="4"/>
<feGaussianBlur stdDeviation="6"/>
<feColorMatrix type="matrix" values="0 0 0 0 0 0 0 0 0 0 0 0 0 0 0 0 0 0 0.4 0"/>
<feBlend mode="normal" in2="effect1_dropShadow_164_12458" result="effect2_dropShadow_164_12458"/>
<feBlend mode="normal" in="SourceGraphic" in2="effect2_dropShadow_164_12458" result="shape"/>
</filter>
<clipPath id="clip0_164_12458">
<rect x="48" y="32" width="668" height="414" rx="10" fill="white"/>
</clipPath>
</defs>
</svg>
